<svg width="66" height="52" viewBox="0 0 66 52" fill="none" xmlns="http://www.w3.org/2000/svg">
<path d="M52.5376 22.0277C56.9151 22.0277 60.9058 23.7381 63.8626 26.5114C63.8626 26.3566 63.8626 26.2117 63.8626 26.0571C63.8626 18.4041 57.6688 12.2004 50.0157 12.2004C49.9577 12.2004 49.8803 12.2004 49.8223 12.2004C48.972 5.35903 43.1453 0.0637207 36.0816 0.0637207C29.994 0.0637207 24.834 3.98689 22.9787 9.45614C20.8626 8.43186 18.5048 7.85208 16.002 7.85208C7.1506 7.85208 0 15.022 0 23.883C0 32.396 6.64813 39.3727 15.026 39.8849V39.9138H36.072C36.043 39.4596 36.014 39.0055 36.014 38.5513C36.0043 29.4295 43.4062 22.0277 52.5376 22.0277Z" fill="#0C91C4"/>
<path d="M52.6438 25.5644C45.4545 25.5644 39.6278 31.3912 39.6278 38.5805C39.6278 45.7697 45.4545 51.5965 52.6438 51.5965C59.833 51.5965 65.66 45.76 65.66 38.5805C65.66 31.3912 59.8428 25.5644 52.6438 25.5644ZM52.6438 47.6153C47.648 47.6153 43.5992 43.5665 43.5992 38.5708C43.5992 33.5751 47.648 29.5262 52.6438 29.5262C57.6396 29.5262 61.6884 33.5749 61.6884 38.5708C61.6884 43.5666 57.6396 47.6153 52.6438 47.6153Z" fill="#0C91C4"/>
<path d="M56.1903 37.3242H54.074V35.2079C54.074 34.4349 53.4556 33.8165 52.6826 33.8165C51.9095 33.8165 51.2911 34.4349 51.2911 35.2079V37.3242H49.1748C48.4019 37.3242 47.7834 37.9426 47.7834 38.7157C47.7834 39.4887 48.4018 40.1073 49.1748 40.1073H51.2911V42.2234C51.2911 42.9964 51.9095 43.615 52.6826 43.615C53.4556 43.615 54.074 42.9965 54.074 42.2234V40.1073H56.1903C56.9632 40.1073 57.5818 39.4888 57.5818 38.7157C57.5818 37.9425 56.9439 37.3242 56.1903 37.3242Z" fill="#0C91C4"/>
</svg>
