<svg width="249" height="93" viewBox="0 0 249 93" fill="none" xmlns="http://www.w3.org/2000/svg">
<rect x="165" y="66" width="84" height="2" rx="1" fill="#333333"/>
<path d="M93 67.1226C93 68.0226 92.1 68.1726 91.05 68.1726L1.65 69.2226C0.75 69.2226 0 68.4726 0 67.5726C0 66.6726 0.75 65.9226 1.65 65.9226H91.2C92.25 65.7726 93 66.2226 93 67.1226Z" fill="#0C91C4"/>
<path d="M4.65001 68.9226C4.80001 69.5226 4.95001 70.1226 4.95001 70.8726C4.95001 72.9726 4.05001 74.7726 2.70001 76.1226C3.45001 76.4226 4.20001 76.5726 5.10001 76.5726C10.8 76.7226 16.8 73.4226 16.8 69.3726C16.8 69.2226 16.8 69.0726 16.8 68.9226H4.65001Z" fill="#0C91C4"/>
<path d="M2.54999 75.9726C3.29999 76.2726 3.89999 76.4226 4.64999 76.4226C9.89999 76.1226 15 72.9726 15 69.2226C15 69.0726 15 68.9226 15 68.7726H4.49999C4.64999 69.3726 4.79999 69.9726 4.79999 70.7226C4.94999 72.8226 4.04999 74.7726 2.54999 75.9726Z" fill="#147A99"/>
<path d="M53.7 27.8225C53.7 34.1225 46.95 39.3725 38.55 39.3725C30.15 39.3725 23.4 34.2725 23.4 27.8225C23.4 21.3725 30.15 16.4225 38.55 16.4225C46.95 16.4225 53.7 21.5225 53.7 27.8225Z" fill="#2D3A34"/>
<path d="M39.6 27.0726C40.3456 27.0726 40.95 26.4681 40.95 25.7226C40.95 24.977 40.3456 24.3726 39.6 24.3726C38.8544 24.3726 38.25 24.977 38.25 25.7226C38.25 26.4681 38.8544 27.0726 39.6 27.0726Z" fill="#EBF0F2"/>
<path d="M48 27.0726C48.7456 27.0726 49.35 26.4681 49.35 25.7226C49.35 24.977 48.7456 24.3726 48 24.3726C47.2544 24.3726 46.65 24.977 46.65 25.7226C46.65 26.4681 47.2544 27.0726 48 27.0726Z" fill="#EBF0F2"/>
<path d="M49.95 51.5225C49.95 57.3725 44.7 59.0225 38.4 59.0225C32.1 59.0225 27.15 57.3725 27.15 51.5225C27.15 45.6725 32.25 32.1725 38.55 32.1725C44.85 32.1725 49.95 45.6725 49.95 51.5225Z" fill="#2D3A34"/>
<path d="M33.9 40.1225C33.45 42.0725 31.5 43.2725 29.55 42.8225C27.6 42.3725 18.15 38.3225 18.6 36.3725C19.05 34.4225 29.25 35.3225 31.2 35.7725C33.3 36.2225 34.35 38.1725 33.9 40.1225Z" fill="#2D3A34"/>
<path d="M42.3 40.4225C42.75 38.4725 44.7 37.2725 46.65 37.7225C48.6 38.1725 58.05 42.2225 57.6 44.1725C57.15 46.1225 46.95 45.2225 45 44.7725C43.05 44.1725 41.85 42.2225 42.3 40.4225Z" fill="#2D3A34"/>
<path d="M44.85 54.3725C46.5 53.1725 48.75 53.4726 49.95 54.9726C51.15 56.4726 56.1 65.4725 54.6 66.6725C52.95 67.8725 45.6 60.8225 44.25 59.3225C42.9 57.8225 43.2 55.5725 44.85 54.3725Z" fill="#2D3A34"/>
<path d="M31.95 54.2225C30.45 53.0225 28.05 53.3225 26.85 54.8225C25.65 56.4725 20.7 65.3225 22.2 66.5225C23.85 67.7225 31.2 60.6725 32.55 59.1725C33.75 57.6725 33.45 55.4225 31.95 54.2225Z" fill="#2D3A34"/>
<line x1="89" y1="67" x2="165" y2="67" stroke="#0C91C4" stroke-width="2"/>
<rect x="165" y="66" width="78" height="2" fill="#333333"/>
</svg>
