<svg width="66" height="66" viewBox="0 0 66 66" fill="none" xmlns="http://www.w3.org/2000/svg">
<g clip-path="url(#clip0_2_127)">
<path d="M32.8283 65.6566C50.9589 65.6566 65.6566 50.9589 65.6566 32.8283C65.6566 14.6977 50.9589 0 32.8283 0C14.6977 0 0 14.6977 0 32.8283C0 50.9589 14.6977 65.6566 32.8283 65.6566Z" fill="#333E48"/>
<path d="M32.8283 59.16C47.3709 59.16 59.16 47.3709 59.16 32.8283C59.16 18.2856 47.3709 6.49652 32.8283 6.49652C18.2856 6.49652 6.49652 18.2856 6.49652 32.8283C6.49652 47.3709 18.2856 59.16 32.8283 59.16Z" fill="white"/>
<path opacity="0.2" d="M32.8283 40.7703C37.2137 40.7703 40.7687 37.2152 40.7687 32.8299C40.7687 28.4446 37.2137 24.8895 32.8283 24.8895C28.443 24.8895 24.8879 28.4446 24.8879 32.8299C24.8879 37.2152 28.443 40.7703 32.8283 40.7703Z" fill="black"/>
<path d="M32.8282 11.4626C33.3335 11.4626 33.7431 11.053 33.7431 10.5477C33.7431 10.0425 33.3335 9.63287 32.8282 9.63287C32.323 9.63287 31.9134 10.0425 31.9134 10.5477C31.9134 11.053 32.323 11.4626 32.8282 11.4626Z" fill="#333E48"/>
<path d="M17.0732 17.9881C17.5784 17.9881 17.988 17.5786 17.988 17.0733C17.988 16.568 17.5784 16.1584 17.0732 16.1584C16.5679 16.1584 16.1583 16.568 16.1583 17.0733C16.1583 17.5786 16.5679 17.9881 17.0732 17.9881Z" fill="#333E48"/>
<path d="M10.5477 33.7447C11.0529 33.7447 11.4625 33.3351 11.4625 32.8299C11.4625 32.3246 11.0529 31.915 10.5477 31.915C10.0424 31.915 9.63281 32.3246 9.63281 32.8299C9.63281 33.3351 10.0424 33.7447 10.5477 33.7447Z" fill="#333E48"/>
<path d="M17.0732 49.4984C17.5784 49.4984 17.988 49.0888 17.988 48.5836C17.988 48.0783 17.5784 47.6687 17.0732 47.6687C16.5679 47.6687 16.1583 48.0783 16.1583 48.5836C16.1583 49.0888 16.5679 49.4984 17.0732 49.4984Z" fill="#333E48"/>
<path d="M32.8282 56.0253C33.3335 56.0253 33.7431 55.6157 33.7431 55.1104C33.7431 54.6051 33.3335 54.1956 32.8282 54.1956C32.323 54.1956 31.9134 54.6051 31.9134 55.1104C31.9134 55.6157 32.323 56.0253 32.8282 56.0253Z" fill="#333E48"/>
<path d="M48.5834 49.4984C49.0887 49.4984 49.4983 49.0888 49.4983 48.5836C49.4983 48.0783 49.0887 47.6687 48.5834 47.6687C48.0782 47.6687 47.6686 48.0783 47.6686 48.5836C47.6686 49.0888 48.0782 49.4984 48.5834 49.4984Z" fill="#333E48"/>
<path d="M55.11 33.7438C55.6152 33.7434 56.0247 33.3342 56.0247 32.8289C56.0251 32.3236 55.6152 31.9142 55.1101 31.9142C54.605 31.9141 54.1953 32.3234 54.1953 32.8288C54.1953 33.3343 54.6047 33.7438 55.11 33.7438Z" fill="#333E48"/>
<path d="M49.2309 17.7208C49.5878 17.3632 49.5881 16.7844 49.2308 16.4272C48.8738 16.0695 48.2944 16.0699 47.9373 16.427C47.5798 16.7841 47.5796 17.3633 47.9371 17.7207C48.2944 18.0781 48.8737 18.0782 49.2309 17.7208Z" fill="#333E48"/>
<path d="M42.3574 34.9944H32.8286C31.6326 34.9944 30.663 34.0248 30.663 32.8289C30.663 31.6329 31.6326 30.6633 32.8286 30.6633H42.3574C43.5534 30.6633 44.523 31.6329 44.523 32.8289C44.523 34.0248 43.5534 34.9944 42.3574 34.9944Z" fill="#0071CE"/>
<path d="M32.8286 34.9944C32.2743 34.9944 31.7202 34.7831 31.2973 34.3601L19.7438 22.8064C18.8981 21.9607 18.8981 20.5896 19.7438 19.7439C20.5894 18.8981 21.9606 18.8983 22.8064 19.7439L34.3598 31.2975C35.2056 32.1432 35.2056 33.5143 34.3598 34.3601C33.937 34.783 33.3825 34.9944 32.8286 34.9944Z" fill="#4BB6AA"/>
</g>
<defs>
<clipPath id="clip0_2_127">
<rect width="65.6567" height="65.6567" fill="white"/>
</clipPath>
</defs>
</svg>
