<svg width="66" height="66" viewBox="0 0 66 66" fill="none" xmlns="http://www.w3.org/2000/svg">
<g clip-path="url(#clip0_2_300)">
<path d="M32.83 65.66C50.9615 65.66 65.66 50.9615 65.66 32.83C65.66 14.6985 50.9615 0 32.83 0C14.6985 0 0 14.6985 0 32.83C0 50.9615 14.6985 65.66 32.83 65.66Z" fill="#6B7F9E"/>
<path d="M40.0121 40.956C39.5989 45.1897 34.551 53.2617 34.5904 54.9487C34.6298 56.6357 36.3462 64.3461 36.3462 64.3461H25.8125L25.1929 54.8459C25.1265 53.8232 22.046 42.996 27.3465 38.5523L30.0469 38.8389L31.4921 40.6981C34.6452 38.1769 36.3197 35.7438 33.6572 31.0991L32.0041 31.1732C30.4577 29.409 31.3252 28.8837 33.2663 28.4874C35.0282 28.1275 36.329 28.489 37.2814 29.3047C38.1481 30.2981 40.3356 37.6246 40.0104 40.9554L40.0121 40.956Z" fill="#FED298"/>
<path d="M55.3627 17.0785L36.6589 38.8334L26.4868 30.0878L45.1905 8.33228L55.3627 17.0785Z" fill="#83CF8F"/>
<path d="M44.1693 26.3733C42.6283 28.1653 39.9263 28.37 38.1335 26.8283C36.3414 25.2866 36.1375 22.5845 37.6784 20.7924C39.2202 18.9996 41.9222 18.7957 43.7143 20.3374C45.5063 21.8784 45.7104 24.5812 44.1693 26.3733ZM27.7343 29.9937L36.564 37.5851L54.1122 17.1728L45.2824 9.58215L27.7335 29.9945L27.7343 29.9937Z" fill="#75BD80"/>
<path d="M50.8949 15.5731L47.3479 12.5235C46.4125 13.6119 44.7725 13.7354 43.685 12.8L30.6772 27.9297C31.7648 28.8651 31.8891 30.505 30.9537 31.5926L34.5007 34.6422C35.4354 33.5546 37.0752 33.4311 38.1636 34.3665L51.1713 19.2368C50.0829 18.3015 49.9602 16.6616 50.8956 15.5732H50.8949V15.5731Z" fill="#83CF8F"/>
<path d="M43.7198 20.3305C45.5165 21.8753 45.7204 24.5828 44.1764 26.3779C42.6323 28.1746 39.9249 28.3777 38.129 26.8344C36.3331 25.2912 36.1292 22.583 37.6732 20.7871C39.2172 18.9912 41.9247 18.7873 43.7206 20.3305H43.7198Z" fill="#75BD80"/>
<path d="M41.9092 23.3661C41.8057 23.2773 41.6928 23.2371 41.5739 23.2456C41.4542 23.2541 41.2842 23.3236 41.0619 23.4541L41.903 24.1771C42.1286 23.8272 42.1309 23.5561 41.9084 23.3654L41.9092 23.3661ZM39.5471 23.3947C39.6567 23.489 39.7726 23.5322 39.8946 23.5237C40.0167 23.5161 40.1765 23.4573 40.3735 23.3477L39.5362 22.6285C39.4365 22.7915 39.3887 22.9382 39.3925 23.0695C39.3971 23.2008 39.4482 23.3097 39.5478 23.3947H39.5471ZM42.1965 22.9737C42.3928 23.1429 42.4916 23.3561 42.4932 23.6125C42.4939 23.869 42.3981 24.1439 42.2042 24.4359L42.7063 24.8677L42.4661 25.1465L41.9833 24.7326C41.8443 24.894 41.6974 25.04 41.5415 25.1697C41.3862 25.2987 41.2449 25.3938 41.1166 25.4516L40.7791 25.1611C40.9359 25.0878 41.0982 24.9866 41.2665 24.8599C41.4349 24.7317 41.5739 24.6042 41.6852 24.4759L40.732 23.6571C40.3845 23.8726 40.0971 23.9862 39.8707 23.9985C39.6444 24.0108 39.4328 23.9328 39.2366 23.7645C39.0473 23.6015 38.9555 23.3945 38.9609 23.1441C38.9655 22.8938 39.0582 22.6367 39.2397 22.3741L38.8457 22.035L39.0851 21.7554L39.4745 22.0906C39.7101 21.8318 39.9835 21.6218 40.2948 21.4603L40.4826 21.8165C40.2123 21.9585 39.9736 22.134 39.768 22.3417L40.7065 23.1489C40.9738 22.9844 41.1901 22.8755 41.3545 22.8221C41.5198 22.7688 41.6705 22.7534 41.8049 22.7766C41.9393 22.7998 42.0706 22.8655 42.1965 22.9744V22.9737Z" fill="white"/>
<path d="M47.6136 9.84618L35.4021 39.0203L21.7603 33.3104L33.9724 4.13556L47.6136 9.84618Z" fill="#83CF8F"/>
<path d="M39.0396 23.4001C38.0332 25.8039 35.2695 26.937 32.8648 25.9306C30.4618 24.9241 29.3279 22.1596 30.3343 19.7557C31.3408 17.3527 34.1045 16.2188 36.5092 17.226C38.9129 18.2318 40.0453 20.9956 39.0396 23.4001ZM23.0378 32.7868L34.8792 37.7427L46.3368 10.3692L34.4962 5.41248L23.0378 32.786V32.7868Z" fill="#75BD80"/>
<path d="M42.4175 9.78834L37.6609 7.797C37.05 9.25537 35.3722 9.94364 33.9138 9.33334L25.4208 29.6229C26.88 30.2331 27.5675 31.9109 26.9564 33.3693L31.7138 35.3598C32.3248 33.9015 34.0018 33.214 35.4609 33.8243L43.9539 13.5339C42.4947 12.9237 41.8072 11.2459 42.4183 9.78757L42.4175 9.78834Z" fill="#83CF8F"/>
<path d="M36.5122 17.2175C38.9198 18.2263 40.0554 20.9956 39.0473 23.4039C38.0393 25.8123 35.2693 26.9471 32.8617 25.939C30.4533 24.931 29.3177 22.161 30.3258 19.7526C31.3339 17.3442 34.1037 16.2088 36.5122 17.2175Z" fill="#3FA344"/>
<path d="M35.6464 21.0163C35.5073 20.9584 35.376 20.9537 35.2547 21.004C35.1319 21.0543 34.9774 21.1847 34.7882 21.3972L35.9175 21.8699C36.0357 21.4258 35.9445 21.1407 35.6471 21.0163H35.6464ZM33.18 21.8499C33.3275 21.9117 33.4635 21.9171 33.5886 21.8677C33.7145 21.8175 33.8612 21.7024 34.0311 21.5202L32.9088 21.0506C32.8585 21.2545 32.8585 21.4252 32.908 21.5619C32.9566 21.6986 33.0478 21.7944 33.1806 21.85H33.18V21.8499ZM35.8155 20.5073C36.0781 20.6178 36.2542 20.807 36.3431 21.0766C36.4312 21.3454 36.4241 21.6668 36.3207 22.0391L36.9934 22.3209L36.8366 22.6955L36.1893 22.4252C36.0982 22.6415 35.9939 22.8447 35.875 23.0338C35.7552 23.2231 35.6394 23.3691 35.5258 23.4741L35.0731 23.284C35.2114 23.1543 35.3473 22.9928 35.4809 22.8029C35.6138 22.6113 35.7165 22.4298 35.7891 22.2576L34.5115 21.7231C34.2203 22.0668 33.9577 22.2839 33.7252 22.3735C33.4919 22.4639 33.2432 22.4538 32.9806 22.3434C32.7272 22.2376 32.5603 22.0521 32.4801 21.788C32.3998 21.523 32.4098 21.2225 32.5102 20.885L31.9826 20.664L32.1394 20.2895L32.6616 20.5081C32.82 20.1566 33.0362 19.843 33.3073 19.5673L33.6249 19.8778C33.3901 20.118 33.1992 20.3829 33.0533 20.6719L34.3124 21.1987C34.5364 20.9353 34.7256 20.7475 34.8809 20.6348C35.0362 20.5229 35.1875 20.4557 35.3367 20.4332C35.4849 20.4115 35.6448 20.4363 35.8155 20.5073Z" fill="#7DBF76"/>
<path d="M40.0113 5.64032L40.0839 37.2677L25.2949 37.3016L25.2231 5.6743L40.0113 5.64032Z" fill="#83CF8F"/>
<path d="M37.3712 21.4606C37.3774 24.0667 35.2702 26.1832 32.6647 26.1894C30.0586 26.1955 27.9421 24.0884 27.9351 21.4821C27.9298 18.8767 30.0369 16.7595 32.6424 16.7541C35.2485 16.7471 37.3657 18.8551 37.3712 21.4606ZM26.2698 36.3237L39.1053 36.2936L39.0373 6.61896L26.201 6.64832L26.2698 36.3229V36.3237Z" fill="#75BD80"/>
<path d="M35.1998 7.60461L30.043 7.61693C30.0461 9.19815 28.767 10.4826 27.1858 10.4865L27.2368 32.4816C28.8181 32.4777 30.1033 33.7576 30.1071 35.338L35.2639 35.3257C35.26 33.7445 36.5391 32.46 38.1196 32.4562L38.0693 10.4611C36.4881 10.4642 35.2029 9.18507 35.199 7.60461H35.1998Z" fill="#83CF8F"/>
<path d="M32.6423 16.7441C35.2524 16.7379 37.3742 18.8505 37.3804 21.4606C37.3866 24.0715 35.2748 26.1932 32.6647 26.198C30.0538 26.2041 27.9328 24.0924 27.9258 21.4823C27.9204 18.8714 30.0323 16.7502 32.6423 16.7441Z" fill="#75BD80"/>
<path d="M33.319 20.5807C33.1691 20.5815 33.0464 20.6286 32.9529 20.722C32.8602 20.8155 32.7674 20.9962 32.6764 21.265L33.8999 21.2627C33.8358 20.8077 33.6419 20.5806 33.3191 20.5814V20.5807H33.319ZM31.3693 22.3063C31.5293 22.3063 31.6567 22.2577 31.7533 22.1643C31.8499 22.0692 31.9403 21.9055 32.0252 21.673L30.8078 21.6753C30.8418 21.883 30.9074 22.0399 31.0047 22.1464C31.1021 22.2538 31.2234 22.3071 31.3686 22.3063H31.3693ZM33.2772 20.0462C33.5631 20.0462 33.7979 20.152 33.9847 20.366C34.1702 20.5792 34.2883 20.8789 34.337 21.2621L35.0669 21.2605L35.0677 21.6668L34.3664 21.6676C34.3664 21.9031 34.3493 22.131 34.3122 22.3505C34.276 22.5714 34.2257 22.7513 34.1616 22.8927H33.6703C33.7467 22.7189 33.81 22.5181 33.8596 22.2902C33.9082 22.0631 33.9321 21.8561 33.9314 21.6683L32.5471 21.6714C32.412 22.1017 32.2543 22.4037 32.0744 22.5767C31.8945 22.7512 31.662 22.837 31.3761 22.8378C31.1012 22.8385 30.8756 22.7327 30.6995 22.5203C30.5227 22.3079 30.4152 22.0266 30.3766 21.676L29.8035 21.6768L29.8027 21.2713L30.3697 21.2705C30.3789 20.8843 30.4555 20.512 30.5999 20.1528L31.0123 20.3158C30.8887 20.6286 30.8169 20.9468 30.7944 21.2698L32.1593 21.2667C32.2636 20.9376 32.3655 20.6905 32.4644 20.5267C32.5633 20.3622 32.6768 20.2424 32.8058 20.1637C32.9348 20.0865 33.0909 20.047 33.2762 20.0462H33.2772Z" fill="white"/>
<path d="M27.7984 6.20502L40.4586 35.1875L26.9063 41.1074L14.2468 12.1242L27.7984 6.20502Z" fill="#83CF8F"/>
<path d="M31.676 21.7672C32.7195 24.1556 31.6289 26.9364 29.2413 27.9799C26.8537 29.0226 24.0721 27.9328 23.0294 25.5445C21.9866 23.1561 23.0772 20.3753 25.4648 19.3325C27.8524 18.289 30.634 19.3796 31.6767 21.7672H31.676ZM27.4106 39.8213L39.1733 34.6838L27.2955 7.4895L15.5328 12.6278L27.4113 39.8213H27.4106Z" fill="#75BD80"/>
<path d="M24.1671 9.922L19.4414 11.9859C20.0748 13.4351 19.4128 15.1235 17.9638 15.7561L26.768 35.9128C28.2179 35.2795 29.9056 35.9414 30.5382 37.3904L35.2639 35.3257C34.6305 33.8774 35.2925 32.1897 36.7415 31.5563L27.9367 11.3996C26.4876 12.0338 24.7999 11.371 24.1665 9.922H24.1671Z" fill="#83CF8F"/>
<path d="M25.4602 19.3241C27.8524 18.279 30.6386 19.3719 31.6836 21.7641C32.7287 24.1564 31.6373 26.9441 29.2443 27.9884C26.8513 29.0334 24.0652 27.9413 23.0201 25.5483C21.9749 23.1561 23.0679 20.3699 25.4602 19.3241Z" fill="#75BD80"/>
<path d="M27.6083 22.5744C27.4709 22.6354 27.3766 22.7266 27.3288 22.8493C27.2802 22.9722 27.2677 23.1738 27.2909 23.4579L28.4125 22.9682C28.1722 22.5759 27.9042 22.4446 27.6083 22.5744ZM26.5076 24.9334C26.6536 24.8693 26.7517 24.775 26.8019 24.6507C26.853 24.5248 26.8707 24.3387 26.8568 24.0907L25.7406 24.5781C25.8549 24.7558 25.9777 24.8732 26.1098 24.932C26.2419 24.9913 26.374 24.9921 26.5076 24.9334ZM27.3565 22.1001C27.6183 21.9859 27.8771 21.9897 28.1327 22.1117C28.3884 22.233 28.6148 22.4609 28.8132 22.793L29.4813 22.501L29.6443 22.8733L29.0017 23.1536C29.0952 23.3683 29.1701 23.5847 29.2242 23.8009C29.2791 24.0172 29.3045 24.2033 29.3006 24.3578L28.851 24.5533C28.8518 24.3632 28.8301 24.1547 28.7846 23.9253C28.7383 23.6966 28.678 23.4973 28.6031 23.3266L27.3348 23.8805C27.3819 24.3285 27.358 24.6692 27.2622 24.9002C27.1656 25.1304 26.9873 25.3034 26.7262 25.417C26.4743 25.5274 26.2249 25.5197 25.9784 25.3953C25.7319 25.2709 25.5218 25.0562 25.3465 24.7496L24.822 24.979L24.6598 24.6075L25.1781 24.3804C25.0337 24.0227 24.9556 23.6504 24.9441 23.2642L25.3874 23.2488C25.399 23.5848 25.4585 23.9054 25.5666 24.2105L26.818 23.6644C26.7825 23.3207 26.7771 23.0542 26.8026 22.8642C26.8281 22.6741 26.8852 22.5182 26.9725 22.3961C27.0591 22.2731 27.1873 22.1742 27.3565 22.1001Z" fill="white"/>
<path d="M34.1423 33.2163L31.9315 38.1236L34.0395 41.7463C36.4401 45.8726 24.6157 44.4189 25.596 40.5544C25.6956 40.1605 26.4417 37.674 26.8242 37.2817L29.5585 34.4738L30.8107 31.5425C32.0791 27.7096 35.6803 29.8029 34.1423 33.2163Z" fill="#FED298"/>
<path d="M31.7263 30.3281C32.0352 29.67 33.5909 29.7704 33.5615 30.5042L32.9404 32.4105C32.9404 32.4105 31.3801 31.7702 30.9236 32.0536L31.7263 30.3281Z" fill="#FFF7DF"/>
<path d="M21.5995 60.7867H39.7757V64.9215C37.5365 65.4035 35.2137 65.66 32.8307 65.66C28.8859 65.66 25.104 64.9633 21.6003 63.688V60.7868H21.5995V60.7867Z" fill="#FFE356"/>
<path d="M22.4818 60.7867H38.892V58.6456H22.4818V60.7867Z" fill="white"/>
</g>
<defs>
<clipPath id="clip0_2_300">
<rect width="65.66" height="65.66" fill="white"/>
</clipPath>
</defs>
</svg>
