<svg width="66" height="66" viewBox="0 0 66 66" fill="none" xmlns="http://www.w3.org/2000/svg">
<path d="M59.7202 62.0663H5.93643C3.38304 62.0663 1.31311 59.9964 1.31311 57.443V8.21378C1.31311 5.66039 3.38304 3.59045 5.93643 3.59045H59.7202C62.2736 3.59045 64.3435 5.66039 64.3435 8.21378V57.443C64.3435 59.9964 62.2736 62.0663 59.7202 62.0663Z" fill="#E7E3E6"/>
<path d="M64.3435 12.8168V8.21376C64.3435 5.66033 62.2736 3.59039 59.7203 3.59039H5.93641C3.38304 3.59039 1.31311 5.66033 1.31311 8.21376V12.8168H64.3435Z" fill="#0C91C4"/>
<path d="M22.4081 13.6673H5.84448V10.0964C5.84448 9.20932 6.56358 8.49023 7.45062 8.49023H20.802C21.6891 8.49023 22.4081 9.20933 22.4081 10.0964V13.6673Z" fill="#E7E3E6"/>
<path d="M38.9718 12.8168H22.4081V10.0964C22.4081 9.20932 23.1272 8.49023 24.0143 8.49023H37.3657C38.2527 8.49023 38.9718 9.20933 38.9718 10.0964V12.8168H38.9718Z" fill="#FFFDFD"/>
<path d="M53.09 10.3723C54.0687 10.3723 54.8622 9.57893 54.8622 8.6002C54.8622 7.62148 54.0687 6.82806 53.09 6.82806C52.1113 6.82806 51.3179 7.62148 51.3179 8.6002C51.3179 9.57893 52.1113 10.3723 53.09 10.3723Z" fill="#E7E3E6"/>
<path d="M47.6858 10.3723C48.6646 10.3723 49.458 9.57893 49.458 8.6002C49.458 7.62148 48.6646 6.82806 47.6858 6.82806C46.7071 6.82806 45.9137 7.62148 45.9137 8.6002C45.9137 9.57893 46.7071 10.3723 47.6858 10.3723Z" fill="#E7E3E6"/>
<path d="M60.646 16.0054H5.60547V26.6063H60.646V16.0054Z" fill="#FFFDFD"/>
<path d="M13.3899 37.2851C15.4431 37.2851 17.1075 35.6207 17.1075 33.5675C17.1075 31.5143 15.4431 29.8499 13.3899 29.8499C11.3368 29.8499 9.67236 31.5143 9.67236 33.5675C9.67236 35.6207 11.3368 37.2851 13.3899 37.2851Z" fill="#EC6E62"/>
<path d="M33.1258 37.2851C35.1789 37.2851 36.8434 35.6207 36.8434 33.5675C36.8434 31.5143 35.1789 29.8499 33.1258 29.8499C31.0726 29.8499 29.4082 31.5143 29.4082 33.5675C29.4082 35.6207 31.0726 37.2851 33.1258 37.2851Z" fill="#85BD57"/>
<path d="M52.8616 37.2851C54.9148 37.2851 56.5792 35.6207 56.5792 33.5675C56.5792 31.5143 54.9148 29.8499 52.8616 29.8499C50.8085 29.8499 49.144 31.5143 49.144 33.5675C49.144 35.6207 50.8085 37.2851 52.8616 37.2851Z" fill="#0C91C4"/>
<path d="M19.2581 41.5187H7.52173V42.5636H19.2581V41.5187Z" fill="#FFFDFD"/>
<path d="M19.2581 39.545H7.52173V40.5899H19.2581V39.545Z" fill="#FFFDFD"/>
<path d="M15.8384 43.4924H7.52173V44.5373H15.8384V43.4924Z" fill="#FFFDFD"/>
<path d="M38.994 41.5187H27.2576V42.5636H38.994V41.5187Z" fill="#FFFDFD"/>
<path d="M38.994 39.545H27.2576V40.5899H38.994V39.545Z" fill="#FFFDFD"/>
<path d="M35.5743 43.4923H27.2576V44.5372H35.5743V43.4923Z" fill="#FFFDFD"/>
<path d="M58.7298 41.5187H46.9934V42.5636H58.7298V41.5187Z" fill="#FFFDFD"/>
<path d="M58.7298 39.545H46.9934V40.5899H58.7298V39.545Z" fill="#FFFDFD"/>
<path d="M55.3101 43.4924H46.9934V44.5373H55.3101V43.4924Z" fill="#FFFDFD"/>
<path d="M20.7677 47.1906H6.01215V56.9869H20.7677V47.1906Z" fill="#EC6E62"/>
<path d="M40.5036 47.1906H25.748V56.9869H40.5036V47.1906Z" fill="#85BD57"/>
<path d="M60.2394 47.1906H45.4838V56.9869H60.2394V47.1906Z" fill="#0C91C4"/>
</svg>
